<?xml version="1.0" encoding="utf-8"?>
<!-- Generator: Adobe Illustrator 25.4.0, SVG Export Plug-In . SVG Version: 6.00 Build 0)  -->
<svg version="1.1" id="Capa_1" xmlns="http://www.w3.org/2000/svg" xmlns:xlink="http://www.w3.org/1999/xlink" x="0px" y="0px"
	 viewBox="0 0 595.3 394.6" style="enable-background:new 0 0 595.3 394.6;" xml:space="preserve">
<style type="text/css">
	.st0{fill:#EA5374;}
	.st1{fill:#3B3C56;}
	.st2{fill:#50BFD0;}
</style>
<path class="st0" d="M0.7,117.2l59.5,0.5c0.3-32.4,26.8-58.5,59.2-58.2c32.4,0.3,58.5,26.8,58.2,59.2l59.5,0.5
	C237.6,53.9,185.2,0.6,119.9,0C54.6-0.5,1.3,51.9,0.7,117.2"/>
<path class="st1" d="M595.3,19l-59.5-0.5C535.5,50.9,509,77,476.6,76.7c-32.4-0.3-58.5-26.8-58.2-59.2L358.9,17
	c-0.5,65.3,51.9,118.6,117.2,119.2C541.4,136.7,594.7,84.3,595.3,19"/>
<path class="st2" d="M200.1,353.3c57.7,56.1,150,54.8,206.2-2.9c28.3-29.1,42-67,41.2-104.6l-291.5,4.1
	C156.2,287.6,171,325,200.1,353.3"/>
</svg>
