<?xml version="1.0" encoding="utf-8"?>
<!-- Generator: Adobe Illustrator 25.4.0, SVG Export Plug-In . SVG Version: 6.00 Build 0)  -->
<svg version="1.1" id="Capa_1" xmlns="http://www.w3.org/2000/svg" xmlns:xlink="http://www.w3.org/1999/xlink" x="0px" y="0px"
	 viewBox="0 0 244.9 76.7" style="enable-background:new 0 0 244.9 76.7;" xml:space="preserve">
<style type="text/css">
	.st0{fill:#3A3C56;}
</style>
<path class="st0" d="M60.6,63.8c-7.2,1.8-11.8,2.8-19.4,4.6c-32.4,8-31.4-9-29.8-17c2.2-11.4,7.9-21.3,18.5-33.5
	c6-6.4,11.5-11.8,18.8-14c5.6-1.5,5.1,2.8,4.4,3.4c-0.7,0-5.5,0.5-5.8,5.4c-0.2,3.5,4.9,4.7,8.1-3.2c2.5-6.3-1.9-9.1-4.5-9.4
	C29.6-1.7-9.8,40.3,2.2,66.1c3.2,5.6,11.1,9.8,19.5,8.7c4.5-0.6,9.4-1.5,17.6-3.5c4.8-1.2,29.7-9.3,37.8,4.9c0,0,2.7-5,9.5-5.1
	c5.6-0.5,13.4,1.6,19.5,5.7C104.3,74.6,89.6,56.6,60.6,63.8"/>
<path class="st0" d="M54.5,25.1c0.1-1.1-0.6-4.7-4.7-2.4c-1.2,0.7-4.2,3.4-3.5,6.5c0.4,1.9,3,3.5,5.4,3.7c0.2,0,0.3,0,0.4-0.1
	C52.4,32.2,54.1,29.1,54.5,25.1 M50.4,35.3c-2.2-0.6-5.4-2.1-7-5.1c0-0.1-0.1,0-0.1,0c-1.9,2.6-5.7,8.1-7.1,12.5
	c-2.5,7.3,2.2,6.9,4.9,4.8c4.8-3.8,9-11.4,9.2-11.6C50.5,35.6,50.6,35.4,50.4,35.3 M84.3,47.6c0,0.8,0.5,2.6,3.3,0.9
	c4.2-2.1,15.5-22.5,17.1-25.1c-0.4-2-3.1-1.4-5.1,0.6c-1.7,1.7-3.9,4.1-7.1,8.3C91.2,34,84.3,43.6,84.3,47.6 M54.8,32.8
	c1.7,0.4,7-3.2,10.1-6.5c2.5-2.6,6.7-6,9.4-6.9c2-0.9,5.1-1.2,7.1-0.1c1.4,0.7,2.3,2.3,2.4,3.9c0.2,4-3.5,9-5.7,9.2
	c-1.7,0.1-2.7-0.9-2.6-2.2c0.6-4.2,4.1-5.4,5.5-5.2c0.5-0.8,0.4-2.1-0.5-2.6c-0.9-0.5-2.8-0.2-4.5,1.1c-6,4.6-11.3,12.1-14.3,20.5
	c-0.5,1.6-0.8,3.9,0.1,5.6c2.6,3.9,8.8-1.5,8.8-1.5c4.2-3.5,8.2-8.5,11.3-12.8c8.2-11.3,19-21.1,23.8-14.7c0.1,0.1,0.2,0.3,0.3,0.3
	c0.1-0.1,0.9-1.5,0.9-1.5h7.7c0,0-16.4,27.3-16.4,27.3c-0.5,0.8-0.6,1.7,0,2.1c0.4,0.3,1.2-0.1,1.2-0.1c4.3-2,10.8-11,10.8-11h2.7
	c-4.2,5.8-9.4,12.6-15.8,16.9c-7.6,4.8-9.2-1.2-8.3-4.1c0,0-5.7,6.9-11.2,5.7c-5.2-1.2-2.2-9.2-2.1-9.6c-0.5,0.4-13.4,14.7-21.2,8
	c-6.6-5.7,2.7-19.9,2.7-19.9c-1.5,0.4-2.8,0.7-3.9,0.9c-1.7,4.1-18.6,27.6-26.2,18.9c-3.5-4.5,0-14.6,6.6-23.2
	c7.4-9.6,16.8-15.1,21.5-12.2C59.9,22.6,55.6,31.1,54.8,32.8"/>
<path class="st0" d="M171.6,5.9c-6.4,3.1-12.7,9.7-15.9,16.5c-2.4,5.1,0.3,6.1,1.9,5.7C164,26.4,171.9,15.2,171.6,5.9 M151,50.2
	c-4.4,10.8-11.9,19.3-20.7,23.4c-4.1,1.6-9.9,2.5-14.2-1.8c-5.1-5.1-4.6-13.8-2.4-19.6C127,16.7,154.4,2.3,162.7,0.7
	c4.5-0.9,7.7-0.7,10,1.7c0,0,10.5-5.2,21.4,0.8c5.2,2.8,7.2,3.9,11,6l2.2,1.3c-1.5,1.4-4.3,4.2-5.9,6c-3.4-1.6-13-8.1-16.7-9.7
	c-1.8-0.8-7.6-3.3-10.6-1.8c1.2,3.6-4.2,22.3-16.7,25.5c-3.5,0.9-7.1-2.6-2.9-10.9C159.7,9.4,170,3.8,170.1,3.8
	c-1.8-0.7-4-0.3-6.3,0.7c-11.3,5.1-23,19.1-27.2,25c-6.5,9.2-12.6,19.8-13.8,30.7c-0.3,3.8,1,6.8,3.5,8.2c4,2.3,8.5-0.7,11.6-3.2
	c3.5-3,6.9-7.2,9.1-11.5c3-5.8,3.8-11.7,1.5-12.6c-2.3-0.9-4.9,2-6.1,3.6c-3.1,4-3.7,8.5-3.7,8.5c-4.4,1.9-8.3,5.3-10.2,7.4
	c0.6-4.7,1.4-7.6,3.1-11.2c3.4-7,10.2-11.8,14.6-12.2c1.9-0.2,3.7,0.2,5.1,2.4C153.1,42.2,152,47.9,151,50.2"/>
<path class="st0" d="M233.5,8.8c-5.6,3-11.4,5-18.4,4.3c-2,2.1-3.8,4.3-5.6,6.5c9.9,2.4,20.3-3.1,26.2-8c6.5-5.6,9.3-11.6,9.3-11.6
	S240.3,5.1,233.5,8.8"/>
<polygon class="st0" points="127.6,19.4 120.2,19.4 116.1,26.1 123.4,26.1 "/>
<path class="st0" d="M214.6,50.5c1.5-2.6,5-7.9,4.9-8.4c-0.3-2.1-2.8-0.9-3.8-0.2c-8,6.1-15.9,19.6-16.1,23.8
	c-0.1,2.6,1.9,1.9,2.3,1.8C205.3,66.5,211.6,55.6,214.6,50.5 M175.8,43.3c0-2.8-1.8-3.6-4.5-2.1c-1.5,0.8-4.3,3.1-3.7,6.6
	c0.6,3.4,4.8,4.8,5,4.7C173.9,50.4,175.8,46.4,175.8,43.3 M171.3,54.7c-2.1-0.8-5.1-2.5-6.5-5.6v0c-3.3,4.2-8.1,12.1-8,15.9
	c0,0.9,0.6,3.9,4.1,2.2C164.7,65.2,169.7,58,171.3,54.7 M226,55.7h2.6c-2,3.1-11.7,17.5-19.5,19.1c-4.6,1-5.2-2.8-4.6-6
	c-1.7,1.7-6.1,5.5-8.7,6c-2.7,0.5-6.7-0.4-5.6-7.6c-4.9,5.8-10.8,10.3-14.4,6c-2.5-3-1.3-8.1,1.4-15.6c0,0,0.9-2.7,1-3
	c-1.3,0.4-4,0.5-4.3,0.6c-4.2,7.1-9.6,14.8-17.2,18.7c-1.1,0.5-4,1.7-6.3,0.6c-2.2-1.2-3.1-3.6-2.7-7.4c0.6-4.7,2.8-8.9,5-12.8
	c4.1-6.1,9.7-13.5,17.3-16.5c1.7-0.7,4.2-1.2,6.2-0.2c1.6,0.8,2.2,2.9,2.2,4.8c0,0.9-0.1,1.7-0.2,2.6c-0.7,3-2,5.8-3,7.8
	c0.5,0.3,3.5-0.3,4.2-0.9c10.6-21.1,22.7-36.6,37-47.3c0,0,5.8-4.3,9.5-3.6c1,0.2,1.7,0.9,1.9,1.9c0.5,3.1-0.9,5.7-2.2,7.9
	c-1.1,0.4-2.8,0.7-2.8,0.7s2.6-4.3,2.7-6.6c0-0.9-0.6-1.1-0.8-1.1c-2.2,0.1-9,6.9-9,6.9c-10.7,10.2-23.2,31.5-25.1,35.9
	c4.1-2,18.8-15.7,25.9-25.1c1.5,0,2.7-0.3,2.7-0.3c-1.1,2.1-8.9,11.6-18,20c-4.2,3.9-8.9,7.4-12.9,10.1c-2,4.1-4.5,10.4-4.8,13.5
	c-0.2,1.5,0.1,3.7,1.9,3.4c2.7-0.5,7.9-8.7,7.9-8.7c4.9-7.3,11-16.6,19.4-21.3c1.9-1.1,4.9-1.5,6.7-0.4c1.2,0.7,1.4,1.3,1.9,2.1
	c0,0,0.8-1.3,1.2-2h7.9c0,0-14.9,25-16.5,28.3c-0.6,1.3,0.3,1.9,1.3,1.5C218.3,66.3,223.2,59.7,226,55.7"/>
<path class="st0" d="M233.3,58.2c0,0.4-0.3,0.6-0.7,0.6h-0.7v-1.3h0.7C233,57.6,233.3,57.8,233.3,58.2 M233.9,60.7l-0.9-1.5
	c0.4-0.1,0.8-0.5,0.8-1c0-0.6-0.5-1.1-1.1-1.1h-1.2v3.6h0.5v-1.5h0.5l0.8,1.5H233.9z M232.5,56.1c-1.5,0-2.8,1.3-2.8,2.8
	c0,1.5,1.2,2.8,2.8,2.8c1.5,0,2.8-1.3,2.8-2.8C235.3,57.4,234,56.1,232.5,56.1 M232.5,62.2c-1.8,0-3.3-1.5-3.3-3.3
	c0-1.8,1.5-3.3,3.3-3.3c1.8,0,3.3,1.5,3.3,3.3C235.8,60.7,234.3,62.2,232.5,62.2"/>
</svg>
