<?xml version="1.0" encoding="utf-8"?>
<!-- Generator: Adobe Illustrator 25.4.0, SVG Export Plug-In . SVG Version: 6.00 Build 0)  -->
<svg version="1.1" id="Capa_1" xmlns="http://www.w3.org/2000/svg" xmlns:xlink="http://www.w3.org/1999/xlink" x="0px" y="0px"
	 viewBox="0 0 167 64.2" style="enable-background:new 0 0 167 64.2;" xml:space="preserve">
<style type="text/css">
	.st0{fill:#FFFFFF;}
</style>
<path class="st0" d="M0,11.5v52.7h8.6v-2.4v-2.3v-2.3v-2.3v-2.3v-2.4v-2.3v-2.3c0-0.8,0-1.6,0-2.3c0-0.8,0-1.5,0-2.3
	C9,41,9.2,41.2,9.4,41.4c6.4,7.4,12.8,14.8,19.2,22.2c0.3,0.4,0.7,0.6,1.2,0.6c3.3,0,6.5,0,9.8,0c0.2,0,0.5,0,0.8-0.1
	c-8-8.8-15.9-17.5-23.8-26.2c7.9-8.8,15.8-17.6,23.7-26.3c0,0,0,0,0-0.1c0,0,0,0-0.1-0.2h-0.8c-2.9,0-5.8,0.1-8.7,0
	c-1.1,0-1.8,0.3-2.6,1.2c-6.3,7.4-12.6,14.8-19,22.3c-0.1,0.2-0.3,0.3-0.6,0.6v-24H0z"/>
<path class="st0" d="M51.3,11.5c0.2,0.4,0.3,0.7,0.5,0.9c5.6,10.7,11.1,21.3,16.7,32c0.3,0.5,0.4,1,0.4,1.5c0,5.8,0,11.5,0,17.3
	c0,0.3,0,0.6,0,0.9c1,0.2,8.1,0.1,8.7,0v-0.9c0-5.8,0-11.6,0-17.3c0-0.5,0.1-0.9,0.3-1.4c0.6-1.2,1.2-2.4,1.9-3.6
	c4.9-9.5,9.9-19,14.8-28.5c0.1-0.3,0.3-0.5,0.4-0.9h-1c-2.6,0-5.2,0-7.9,0c-0.7,0-1,0.2-1.3,0.8c-3.8,8-7.6,16-11.3,24
	c-0.1,0.3-0.3,0.5-0.5,0.9C69,28.5,64.9,20,60.9,11.5H51.3z"/>
<path class="st0" d="M167,7.5c-3-2.5-5.8-5-8.8-7.5c-1.2,4.4-2.3,8.6-3.5,13C158.9,11.2,162.9,9.4,167,7.5"/>
<path class="st0" d="M0,11.5h8.6v24c0.3-0.3,0.5-0.4,0.6-0.6c6.3-7.4,12.7-14.8,19-22.3c0.7-0.9,1.4-1.2,2.6-1.2
	c2.9,0.1,5.8,0,8.7,0h0.8c0,0.1,0.1,0.1,0.1,0.2c0,0,0,0.1,0,0.1c-7.9,8.7-15.7,17.5-23.7,26.3c7.9,8.7,15.8,17.4,23.8,26.2
	c-0.4,0-0.6,0.1-0.8,0.1c-3.3,0-6.5,0-9.8,0c-0.5,0-0.9-0.2-1.2-0.6c-6.4-7.4-12.8-14.8-19.2-22.2C9.2,41.2,9,41,8.6,40.8
	c0,0.8,0,1.5,0,2.3c0,0.8,0,1.6,0,2.3v2.3v2.3v2.4v2.3v2.3v2.3v2.3v2.4H0V11.5z"/>
<path class="st0" d="M51.3,11.5h9.6c4,8.5,8.1,17.1,12.2,25.7c0.2-0.4,0.3-0.7,0.5-0.9c3.8-8,7.6-16,11.3-24
	c0.3-0.6,0.6-0.8,1.3-0.8c2.6,0,5.2,0,7.9,0h1c-0.2,0.4-0.3,0.7-0.4,0.9c-4.9,9.5-9.9,19-14.8,28.5c-0.6,1.2-1.2,2.4-1.9,3.6
	c-0.2,0.4-0.3,0.9-0.3,1.4c0,5.8,0,11.6,0,17.3v0.9c-0.6,0.2-7.6,0.2-8.7,0c0-0.3,0-0.6,0-0.9c0-5.8,0-11.5,0-17.3
	c0-0.6-0.1-1-0.4-1.5c-5.6-10.7-11.2-21.3-16.7-32C51.6,12.1,51.5,11.9,51.3,11.5"/>
<path class="st0" d="M167,7.5c-4.1,1.9-8.1,3.7-12.3,5.5c1.2-4.4,2.3-8.7,3.5-13C161.1,2.5,164,5,167,7.5"/>
<path class="st0" d="M160.1,31.7c-1.6-8.3-6.2-14.6-13.7-18.5c-5.9-3-12.2-3.8-18.7-2.4c-8.5,1.8-14.9,6.7-18.6,14.6
	c-2.4,5.1-3,10.6-2.2,16.1c1.3,8.3,5.5,14.7,12.7,19c4.3,2.5,9,3.7,14,3.7c1.9,0,3.9-0.1,5.7-0.6c8.7-1.9,15.2-6.8,18.9-14.9
	C160.7,43.3,161.2,37.5,160.1,31.7 M150.1,45.6c-2.6,6.4-7.6,9.8-14.4,10.6c-2.9,0.3-5.7,0.1-8.4-0.9c-4.6-1.6-8-4.6-9.9-9
	c-2.6-6-2.7-12.1-0.2-18.1c2.5-5.8,7-9,13.2-10c0.4-0.1,0.7-0.1,1.1-0.1c0.7-0.1,1.3-0.1,1.8-0.1c3.6,0,6.9,0.7,9.8,2.5
	c3.5,2.1,5.9,5,7.2,8.8C152.3,34.8,152.3,40.3,150.1,45.6"/>
</svg>
