<?xml version="1.0" encoding="utf-8"?>
<!-- Generator: Adobe Illustrator 25.4.0, SVG Export Plug-In . SVG Version: 6.00 Build 0)  -->
<svg version="1.1" id="Capa_1" xmlns="http://www.w3.org/2000/svg" xmlns:xlink="http://www.w3.org/1999/xlink" x="0px" y="0px"
	 viewBox="0 0 130.1 49.7" style="enable-background:new 0 0 130.1 49.7;" xml:space="preserve">
<style type="text/css">
	.st0{fill:#3A3C56;}
	.st1{fill:#EA5374;}
</style>
<path class="st0" d="M0.7,8.9h6.7v18.6c0.2-0.2,0.4-0.3,0.5-0.5c4.9-5.7,9.8-11.5,14.7-17.2c0.6-0.7,1.1-0.9,2-0.9
	c2.2,0.1,4.5,0,6.7,0h0.6c0,0.1,0,0.1,0,0.1s0,0,0,0.1c-6.1,6.8-12.2,13.5-18.3,20.4c6.1,6.7,12.3,13.5,18.5,20.3
	c-0.3,0-0.5,0-0.6,0c-2.5,0-5.1,0-7.6,0c-0.4,0-0.7-0.1-1-0.4C17.9,43.6,13,37.9,8,32.1c-0.1-0.2-0.3-0.3-0.6-0.5c0,0.6,0,1.2,0,1.8
	c0,0.6,0,1.2,0,1.8V37v1.8v1.9v1.8v1.8v1.8v1.8v1.8H0.7V8.9z"/>
<path class="st0" d="M40.5,8.9h7.5c3.1,6.6,6.3,13.2,9.4,19.9c0.2-0.3,0.3-0.5,0.4-0.7c2.9-6.2,5.9-12.4,8.8-18.6
	c0.2-0.5,0.5-0.6,1-0.6c2,0,4.1,0,6.1,0h0.7c-0.1,0.3-0.2,0.5-0.3,0.7c-3.8,7.4-7.7,14.7-11.5,22.1c-0.5,0.9-0.9,1.8-1.4,2.8
	c-0.2,0.3-0.3,0.7-0.3,1.1c0,4.5,0,9,0,13.4v0.7c-0.5,0.1-5.9,0.2-6.7,0c0-0.2,0-0.5,0-0.7c0-4.5,0-8.9,0-13.4
	c0-0.4-0.1-0.8-0.3-1.2c-4.3-8.3-8.6-16.5-13-24.8C40.7,9.4,40.6,9.2,40.5,8.9"/>
<path class="st1" d="M130.1,5.8c-3.2,1.4-6.3,2.8-9.5,4.3c0.9-3.4,1.8-6.7,2.7-10.1C125.6,1.9,127.8,3.9,130.1,5.8"/>
<path class="st0" d="M124.8,24.6c-1.2-6.4-4.8-11.3-10.6-14.3c-4.6-2.4-9.4-2.9-14.5-1.9c-6.6,1.4-11.5,5.2-14.4,11.3
	c-1.9,4-2.4,8.2-1.7,12.5c1,6.4,4.3,11.4,9.9,14.7c3.3,2,7,2.8,10.8,2.8c1.5,0,3-0.1,4.5-0.4c6.8-1.5,11.7-5.2,14.6-11.6
	C125.3,33.5,125.7,29.1,124.8,24.6 M117.1,35.4c-2,4.9-5.9,7.6-11.1,8.3c-2.2,0.3-4.4,0-6.5-0.7c-3.6-1.2-6.2-3.5-7.7-7
	c-2-4.6-2.1-9.4-0.1-14c1.9-4.5,5.5-7,10.2-7.7c0.3,0,0.6-0.1,0.9-0.1c0.5,0,1-0.1,1.4-0.1c2.8,0,5.3,0.6,7.6,1.9
	c2.7,1.6,4.6,3.9,5.6,6.8C118.8,27,118.8,31.2,117.1,35.4"/>
</svg>
