<?xml version="1.0" encoding="utf-8"?>
<!-- Generator: Adobe Illustrator 25.4.0, SVG Export Plug-In . SVG Version: 6.00 Build 0)  -->
<svg version="1.1" id="Capa_1" xmlns="http://www.w3.org/2000/svg" xmlns:xlink="http://www.w3.org/1999/xlink" x="0px" y="0px"
	 viewBox="0 0 492.9 373.9" style="enable-background:new 0 0 492.9 373.9;" xml:space="preserve">
<style type="text/css">
	.st0{fill:#F9B140;}
	.st1{fill:#3B3C56;}
	.st2{fill:#FFFFFF;}
</style>
<polygon class="st0" points="297.4,294.8 232.2,294.8 297.4,229.6 "/>
<rect x="96.9" y="-12.8" transform="matrix(0.7071 -0.7071 0.7071 0.7071 -59.5078 143.6649)" class="st1" width="93.4" height="312.9"/>
<path class="st0" d="M391.2,294.3c-20.2,0-36.8,15.2-39.2,34.7v4h-0.5c0,12.8-10.4,23.1-23.1,23.1c-12.8,0-23.1-10.4-23.1-23.1
	h-16.3c0,21.8,17.7,39.5,39.5,39.5c20.2,0,36.8-15.2,39.2-34.7v-4h0.5c0-12.8,10.4-23.1,23.1-23.1c12.6,0,22.8,10,23.1,22.5h-0.1
	c0,21.8,17.7,39.5,39.5,39.5c20.2,0,36.8-15.2,39.2-34.7v-4.7h-16c0,12.8-10.4,23.1-23.1,23.1c-12.6,0-22.8-10-23.1-22.5h0.1
	C430.7,312,413,294.3,391.2,294.3"/>
<rect x="124.2" y="-13.8" transform="matrix(0.7071 -0.7071 0.7071 0.7071 -59.0234 143.8624)" class="st2" width="40" height="314"/>
</svg>
