<?xml version="1.0" encoding="utf-8"?>
<!-- Generator: Adobe Illustrator 25.4.0, SVG Export Plug-In . SVG Version: 6.00 Build 0)  -->
<svg version="1.1" id="Capa_1" xmlns="http://www.w3.org/2000/svg" xmlns:xlink="http://www.w3.org/1999/xlink" x="0px" y="0px"
	 viewBox="0 0 286.8 273.8" style="enable-background:new 0 0 286.8 273.8;" xml:space="preserve">
<style type="text/css">
	.st0{fill-rule:evenodd;clip-rule:evenodd;fill:#3A3C56;}
	.st1{fill:#3A3C56;}
	.st2{fill-rule:evenodd;clip-rule:evenodd;fill:#FFFFFF;}
</style>
<path class="st0" d="M191.3,95.6c0,52.8-42.8,95.6-95.6,95.6C42.8,191.2,0,148.4,0,95.6C0,42.8,42.8,0,95.6,0
	C148.4,0,191.3,42.8,191.3,95.6"/>
<rect x="206.8" y="149.7" transform="matrix(0.6688 -0.7434 0.7434 0.6688 -85.8722 238.9388)" class="st1" width="36.9" height="132.3"/>
<path class="st2" d="M92.3,66c-23,0.5-43.1,13.5-54.7,33c12.5,18.9,33.1,31,56.1,30.5c23-0.5,43.1-13.5,54.7-33
	C135.9,77.6,115.3,65.5,92.3,66"/>
<path class="st0" d="M106.8,85.5c6.8,6.5,7,17.2,0.5,24c-6.5,6.8-17.2,7-24,0.5c-6.8-6.5-7-17.2-0.5-24C89.3,79.3,100,79,106.8,85.5
	"/>
</svg>
