<?xml version="1.0" encoding="utf-8"?>
<!-- Generator: Adobe Illustrator 25.4.0, SVG Export Plug-In . SVG Version: 6.00 Build 0)  -->
<svg version="1.1" id="Capa_1" xmlns="http://www.w3.org/2000/svg" xmlns:xlink="http://www.w3.org/1999/xlink" x="0px" y="0px"
	 viewBox="0 0 328.9 48.1" style="enable-background:new 0 0 328.9 48.1;" xml:space="preserve">
<style type="text/css">
	.st0{fill-rule:evenodd;clip-rule:evenodd;fill:#3A3C56;}
</style>
<path class="st0" d="M180.3,22.4c0,0-3.2-2-5.2-2.7c0,0-6.1-2.8-7.3-4.2c0,0-2.4-2.2-1-4.9c0,0,0.6-1.7,3.1-1.7c0,0,3.3,0.2,3.3,2.9
	v3.8H185l0-5.6c0,0,0.9-9.2-13.9-9.6c0,0-11.6-0.8-14.9,5.5c0,0-1.3,1.4-1.3,6.3v3.5c0,0-0.1,4.1,1.9,6.7c0,0,1.2,1.7,4.1,3.6
	c0,0,5.9,3.2,9.4,5c0,0,3.5,2,3.1,5.2c0,0-0.3,3.3-3.7,3.2c0,0-3.1-0.1-3.1-3.4V32h-12.5v5.5c0,0-0.4,10.6,15.8,10.6
	c0,0,15.4,0.3,16.1-10.9v-4.5C185.8,32.8,186.3,26,180.3,22.4"/>
<polygon class="st0" points="120.1,1.7 116.2,26.4 115.2,26.4 111.5,1.9 91.8,1.9 90.8,46.6 102.5,46.6 102.6,12.9 103.5,12.9 
	109.7,46.6 121.9,46.6 128,12.9 128.8,12.9 129.1,46.6 140.8,46.6 139.6,1.7 "/>
<polygon class="st0" points="50.8,1.8 43.1,46.5 55.6,46.5 60.2,11.9 61.2,11.9 65.8,46.5 78.3,46.5 70.6,1.8 "/>
<path class="st0" d="M313.7,21.7v6.6h3.2v7.1c0,3.5-3,3.5-3,3.5c-3.6,0-3.5-3.3-3.5-3.3V11.2c0-2.5,3.2-2.7,3.2-2.7
	c3.1,0,3.1,3,3.1,3v3.7h11.8c0.4-7.3-1.1-9-1.1-9c-2.9-6.6-14-6.2-14-6.2c-17,0-15.1,13.1-15.1,13.1v23.7c0.4,12.2,17.1,11,17.4,11
	c7.5-0.8,9.7-3.2,9.7-3.2c2.1-1.5,2.6-3.7,2.6-3.7c0.6-1.2,0.7-5.2,0.7-5.2V21.7H313.7z"/>
<polygon class="st0" points="274.6,29 274.1,29 262.1,1.7 247.8,1.7 247.8,46.6 259.5,46.6 258.8,19.3 259.3,19.3 271.7,46.6 
	285.6,46.6 285.6,1.7 273.8,1.7 "/>
<path class="st0" d="M219.4,35.4c0,0,0.2,3.7-3.2,3.7c0,0-3.6,0.2-3.6-3.6l0-33.8h-12.8v33.5c0,0-1.3,12.7,16.6,12.7
	c0,0,15.6,0.2,15.6-12.1V1.7h-12.5V35.4z"/>
<path class="st0" d="M26.4,22.4c0,0-3.2-2-5.2-2.7c0,0-6.1-2.8-7.3-4.2c0,0-2.4-2.3-1-4.9c0,0,0.6-1.7,3.1-1.7c0,0,3.3,0.2,3.3,2.9
	v3.8h11.8l0-5.6c0,0,0.9-9.2-13.9-9.6c0,0-1.1-0.1-2.7,0c0,0-8.9,0.5-12.1,5.4c0,0,0,0.1-0.1,0.1c0,0-1.3,1.4-1.3,6.3v3.5
	c0,0-0.1,4,1.9,6.7c0,0,1.2,1.7,4.1,3.6c0,0,5.8,3.1,9.4,5c0,0,3.5,2,3.1,5.2c0,0-0.3,3.3-3.7,3.2c0,0-3.1-0.1-3.1-3.4V32H0v5.5
	c0,0-0.4,10.6,15.8,10.6c0,0,15.4,0.3,16.1-10.8v-4.5C31.9,32.8,32.4,26,26.4,22.4"/>
</svg>
