<?xml version="1.0" encoding="utf-8"?>
<!-- Generator: Adobe Illustrator 25.4.0, SVG Export Plug-In . SVG Version: 6.00 Build 0)  -->
<svg version="1.1" id="Capa_1" xmlns="http://www.w3.org/2000/svg" xmlns:xlink="http://www.w3.org/1999/xlink" x="0px" y="0px"
	 viewBox="0 0 360.7 98.8" style="enable-background:new 0 0 360.7 98.8;" xml:space="preserve">
<style type="text/css">
	.st0{fill:#3A3C56;}
</style>
<path class="st0" d="M105.8,43.9c-5.5,7.8-13,14.9-19.5,14.9c-2.7,0-3.9-1.5-3.9-4.7c0-1.9,0.4-4.6,0.8-5.9
	c6.2-3.1,12.3-6.5,17.9-12.3c3.1-3.3,5.2-6.6,5.3-10.1c0.1-3.3-2-5-6-5c-5.8-0.1-12.9,3.9-17.5,8.8c-6,6.5-10.7,15.8-10.8,24.1
	c-0.1,5.8,2.7,10.4,10.2,10.2c8.1-0.2,15.9-6.5,20-10.9c-0.5,1.9-0.9,3.7-0.9,5.2c0,5.2,2.6,8.8,7.7,10.4l1-0.5
	c-0.5-1.4-0.6-2.9-0.5-4.5c0.4-5,2.4-10.7,5.3-18.2c5.6-14.1,13.8-30.3,17.4-39.8l-8.6,1.6c-1.3,0.3-2.1,1.3-2.6,2.3
	c-4.1,8.8-8.4,18.1-13.7,30.3C107.1,41.2,106.5,42.5,105.8,43.9 M97.8,25.1c1.3,0,1.8,0.9,1.8,2.1c0,5.5-6.8,12.5-15.5,17.7
	C86.3,36.3,92.4,25,97.8,25.1"/>
<path class="st0" d="M244.2,57.9c0,3.9,2.4,6.3,7.2,6.2c4.9-0.1,9.9-3,14.1-7c0.8,4.2,3.8,7.2,10,7.1c6.4-0.2,12.6-4.3,16.9-8.9
	c0,0.5-0.1,0.9-0.1,1.4c0,4.3,2.3,7.5,7.2,7.5c5.3,0,11.5-4,16.3-10.9l0.2,0.1c-0.5,1.6-0.9,4.4-1,6.3c-0.1,5.2,2.9,8.1,7.3,9l1-0.4
	c-1.5-3.8,0.6-13.2,1.6-16.3c3.2-10.3,8.3-22.1,11.2-28.2c-1.3-1.1-4.5-1.9-7.8-2.1c-11.1-0.4-22.2,4.1-30.3,18.5
	c-1.4,2.5-2.9,5.4-4,8.5c-1.2,1.5-2.3,2.8-2.9,3.3c-2.9,2.8-7.1,6.5-11.4,6.5c-2.4,0-3.7-1.7-3.7-4.7c0.1-11.5,10.3-29,17.1-29.1
	c1.9,0,2.7,0.8,2.7,2.5c0,1.9-1.3,4.6-3.2,6.3l0.8,0.7c4.6-1.8,8.9-5,8.9-8.4c0-3.9-4.5-4.6-8.5-4.6c-5.3,0-12.1,2.7-17.5,8.6
	c-6.7,7.3-10.2,16.2-10.9,22.5c-3.1,3.6-6.5,6-8.8,6.1c-1.3,0.1-2.2-0.6-2.2-2c0-1.2,0.6-3.6,1.8-6.8c3-7.4,7.3-16.6,12.6-27.6
	c0,0-8.1,1.4-9.2,1.7c-1.3,0.3-2.2,1.1-2.7,2.3c-3.4,7.3-7.5,15.8-10.1,22C245.1,51.9,244.2,55.7,244.2,57.9 M319.6,26.5
	c2.6-1.2,4.8-1.3,6.6-0.9c-0.7,1.4-3.8,7.6-6.2,13.3c-3.8,8.8-9.5,17.7-14.9,19c-1.9,0.5-2.9-0.3-2.9-2.1
	C302.4,47.9,311,30.5,319.6,26.5"/>
<path class="st0" d="M130.8,29.7c-6,6.5-10.7,15.8-10.8,24.1c-0.1,5.7,3,10.5,10.6,10.2c8.2-0.2,15.8-5,22.3-11.8
	c-1.6,4.4-3.1,8.1-3.9,10.2c-2.4,6-4.2,10.9-7.9,13.7l0.4,0.7c10.9,0.6,14.9-7,19.4-19.5c4.5-12.5,8.3-23.3,11.2-30.8
	c4.7,0,11.5,0.2,15.3-0.7c-9.9,4.4-18.2,20.1-17.2,30.5c0.4,4.6,3.1,7.7,9,7.7c11.3,0,20.8-13.4,24.4-22.2c2.1-5.1,3.4-9.4,3.7-13.7
	c2.7-0.5,5.2-0.9,6.5-1.1c2.5-0.4,2,2.4,1.3,4.5c-4.6,12.9-12.6,31.7-12.7,31.9l8.8,0c3.8-7.9,6.2-13.1,9.2-18.4
	c3.6-6.4,11.9-16.9,15.1-16.9c1.1,0,1.5,0.8,1.2,1.9c-0.6,4.3-11.2,20.8-11,29.1c0.1,5.3,2.9,8.5,7.9,9.7l1-0.6
	c-0.6-1.1-0.7-2.6-0.7-4.3c-0.1-5.4,4.3-15,6.1-18.7c2.7-5.8,7.6-14.3,7.3-18.9c-0.1-2.3-1.9-4.3-5.8-4.3c-7.2,0-14.4,7-20.4,16.3
	l-0.1-0.1c2.4-5.4,4.3-10.5,4.2-12.9c-0.1-2.3-1.3-3.2-4-3.2c-1.9,0-4.5,0.8-7,1.4c-3.5,0.9-7.3,1.9-11.4,2.8
	c-2.5,0.4-3.4,0.8-3.3,1.7c0.5,14.3-9.2,31.2-15.7,31.3c-2.8,0-3.5-2-3.5-4.9c0-9.9,8.1-26.5,16.1-29.2c0.7-0.2,1.4-0.4,1.8-0.5
	l1-2.7c-1.7,0.3-5.7,0.4-7.8,0.4c-2.1,0-17.5,0-17.5,0c4.6-11,11.1-18.1,20.6-18.5c5.9-0.2,9.9,2,10.2,5.4c0.3,2.9-0.6,5.2-2.8,7.5
	l0.6,0.7c5.2-2.5,8.8-6.6,8.8-9.5c0-4.4-5.2-7.1-13.7-7.1c-10.8,0.1-24.1,2.5-33.4,21.7c-2.7,0.4-5.3,1.5-7.4,3.7l0.4,0.9
	c1.5-0.5,3.3-0.7,5.3-0.6c-1.3,3.2-3.9,10-6.5,17c-7.8,10.4-15.7,15.2-21.4,15.3c-3.2,0-4.4-1.7-4.5-4.7c0-1.9,0.4-4.5,0.8-5.9
	c6.2-3.1,12.3-6.5,17.9-12.3c3.1-3.3,5.2-6.6,5.3-10.1c0.1-3.3-2-5-6-5C142.5,20.8,135.4,24.8,130.8,29.7 M145.6,25.1
	c1.3,0,1.8,0.9,1.8,2.1c0,5.5-6.8,12.5-15.5,17.7C134.2,36.3,140.3,25,145.6,25.1"/>
<path class="st0" d="M268.8,15.3c2.5,0,4.9-2.3,5.5-5c0.6-2.7-1-4.9-3.5-4.9c-2.5,0-4.9,2.3-5.5,5.1
	C264.8,13.1,266.4,15.3,268.8,15.3"/>
<path class="st0" d="M180.4,94C90.9,94,0,95,0,96.4s90.9,2.4,180.4,2.4c89.5,0,180.4-1.1,180.4-2.4S269.8,94,180.4,94"/>
<path class="st0" d="M35.9,30.2l0.6-0.4c-0.8-1.4-1.1-3.7-1.1-5.1C35.7,13,47.9,6.4,67.2,6.4c0,0,4.8,0,10.6,0
	c-6.2,3.6-11.4,8.4-15.3,17.4c-1.7,3.9-9.8,24.7-13.2,34.1c-4.1,11.1-6.8,16.2-10,18l0.5,1C49,77.4,54.5,72.7,58.1,64
	c3.4-8.2,7.8-21.3,10-27.1c7.1-18.7,10.2-26.6,15.8-30.5c7.8,0,15.5,0,15.5,0c8.5-0.2,12.1-2.4,14.7-5.6L113.5,0
	c-2.1,1.1-6.7,1.3-10.6,1.4H64.7c-21.5,0-34.6,7-36.8,17.6C26.9,24,29.7,29.5,35.9,30.2"/>
</svg>
